<?xml version="1.0" encoding="utf-8"?>
<!-- Generator: Adobe Illustrator 15.0.2, SVG Export Plug-In . SVG Version: 6.00 Build 0)  -->
<!DOCTYPE svg PUBLIC "-//W3C//DTD SVG 1.1//EN" "http://www.w3.org/Graphics/SVG/1.1/DTD/svg11.dtd">
<svg version="1.1" id="Calque_1" xmlns="http://www.w3.org/2000/svg" xmlns:xlink="http://www.w3.org/1999/xlink" x="0px" y="0px"
	 width="36px" height="1044px" viewBox="0 0 36 1044" enable-background="new 0 0 36 1044" xml:space="preserve">
<g>
	<circle fill="#09688A" cx="5" cy="126" r="0.5"/>
	<circle fill="#09688A" cx="5" cy="162" r="1"/>
	<circle fill="#09688A" cx="5" cy="198" r="1.5"/>
	<circle fill="#09688A" cx="5" cy="234" r="2"/>
	<circle fill="#09688A" cx="5" cy="270" r="2.5"/>
	<circle fill="#09688A" cx="5" cy="306" r="3"/>
	<circle fill="#09688A" cx="14" cy="306" r="0.5"/>
	<circle fill="#09688A" cx="5" cy="342" r="3"/>
	<circle fill="#09688A" cx="14" cy="342" r="1"/>
	<circle fill="#09688A" cx="5" cy="378" r="3"/>
	<circle fill="#09688A" cx="14" cy="378" r="1.5"/>
	<circle fill="#09688A" cx="5" cy="414" r="3"/>
	<circle fill="#09688A" cx="14" cy="414" r="2"/>
	<circle fill="#09688A" cx="5" cy="450" r="3"/>
	<circle fill="#09688A" cx="14" cy="450" r="2.5"/>
	<circle fill="#09688A" cx="5" cy="486" r="2.5"/>
	<circle fill="#09688A" cx="14" cy="486" r="3"/>
	<circle fill="#09688A" cx="23.001" cy="486" r="0.5"/>
	<circle fill="#09688A" cx="5" cy="522" r="2"/>
	<circle fill="#09688A" cx="14" cy="522" r="3"/>
	<circle fill="#09688A" cx="23.001" cy="522" r="1"/>
	<circle fill="#09688A" cx="5" cy="558" r="2"/>
	<circle fill="#09688A" cx="14" cy="558" r="3"/>
	<circle fill="#09688A" cx="23.001" cy="558" r="1.5"/>
	<circle fill="#09688A" cx="5" cy="594" r="1.5"/>
	<circle fill="#09688A" cx="14" cy="594" r="3"/>
	<circle fill="#09688A" cx="23.001" cy="594" r="2"/>
	<circle fill="#09688A" cx="5" cy="630" r="1"/>
	<circle fill="#09688A" cx="14" cy="630" r="3"/>
	<circle fill="#09688A" cx="23.001" cy="630" r="2.5"/>
	<circle fill="#09688A" cx="5" cy="666" r="0.5"/>
	<circle fill="#09688A" cx="14" cy="666" r="2.5"/>
	<circle fill="#09688A" cx="23.001" cy="666" r="3"/>
	<circle fill="#09688A" cx="32.001" cy="666" r="0.5"/>
	<circle fill="#09688A" cx="14" cy="702" r="2"/>
	<circle fill="#09688A" cx="23.001" cy="702" r="2.5"/>
	<circle fill="#09688A" cx="32.001" cy="702" r="1"/>
	<circle fill="#09688A" cx="14" cy="738" r="1.5"/>
	<circle fill="#09688A" cx="23.001" cy="738" r="2"/>
	<circle fill="#09688A" cx="32.001" cy="738" r="1.5"/>
	<circle fill="#09688A" cx="14" cy="774" r="1"/>
	<circle fill="#09688A" cx="23.001" cy="774" r="1.5"/>
	<circle fill="#09688A" cx="32.001" cy="774" r="2"/>
	<circle fill="#09688A" cx="14" cy="810" r="0.5"/>
	<circle fill="#09688A" cx="23.001" cy="810" r="1"/>
	<circle fill="#09688A" cx="32.001" cy="810" r="2.5"/>
	<circle fill="#09688A" cx="23.001" cy="846" r="0.5"/>
	<circle fill="#09688A" cx="32.001" cy="846" r="3"/>
	<circle fill="#09688A" cx="32.001" cy="882" r="2.5"/>
	<circle fill="#09688A" cx="32.001" cy="918" r="2"/>
	<circle fill="#09688A" cx="32.001" cy="954" r="1.5"/>
	<circle fill="#09688A" cx="32.001" cy="990" r="1"/>
	<circle fill="#09688A" cx="32.001" cy="1026" r="0.5"/>
	<rect y="0" fill="#607D8B" fill-opacity="0" width="36" height="1044"/>
</g>
</svg>
