<?xml version="1.0" encoding="utf-8"?>
<!-- Generator: Adobe Illustrator 15.0.2, SVG Export Plug-In . SVG Version: 6.00 Build 0)  -->
<!DOCTYPE svg PUBLIC "-//W3C//DTD SVG 1.1//EN" "http://www.w3.org/Graphics/SVG/1.1/DTD/svg11.dtd">
<svg version="1.1" id="Calque_1" xmlns="http://www.w3.org/2000/svg" xmlns:xlink="http://www.w3.org/1999/xlink" x="0px" y="0px"
	 width="36px" height="684px" viewBox="0 0 36 684" enable-background="new 0 0 36 684" xml:space="preserve">
<g>
	<rect fill="#231F20" fill-opacity="0" width="36" height="684"/>
	<rect x="15.001" y="24" fill="#009688" width="6" height="6"/>
	<rect x="5.501" y="24" fill="#009688" width="6" height="6"/>
	<rect x="24.501" y="24" fill="#009688" width="6" height="6"/>
	<rect x="15.001" y="60" fill="#009688" width="6" height="6"/>
	<rect x="5.501" y="60" fill="#009688" width="6" height="6"/>
	<rect x="24.501" y="60" fill="#009688" width="6" height="6"/>
	<rect x="15.001" y="96" fill="#009688" width="6" height="6"/>
	<rect x="5.501" y="99" fill="#009688" width="6" height="4"/>
	<rect x="24.501" y="96" fill="#009688" width="6" height="6"/>
	<rect x="15.001" y="135" fill="#009688" width="6" height="4"/>
	<rect x="5.501" y="138" fill="#009688" width="6" height="2"/>
	<rect x="24.501" y="132" fill="#009688" width="6" height="6"/>
	<rect x="15.001" y="174" fill="#009688" width="6" height="2"/>
	<rect x="5.501" y="174" fill="#009688" width="6" height="2"/>
	<rect x="24.501" y="171" fill="#009688" width="6" height="4"/>
	<rect x="15.001" y="210" fill="#009688" width="6" height="2"/>
	<rect x="5.501" y="210" fill="#009688" width="6" height="2"/>
	<rect x="24.501" y="210" fill="#009688" width="6" height="2"/>
	<rect x="15.001" y="246" fill="#009688" width="6" height="2"/>
	<rect x="5.501" y="241" fill="#009688" width="6" height="6"/>
	<rect x="24.501" y="246" fill="#009688" width="6" height="2"/>
	<rect x="15.001" y="277" fill="#009688" width="6" height="6"/>
	<rect x="6.501" y="265" fill="#009688" width="4" height="8"/>
	<rect x="24.501" y="282" fill="#009688" width="6" height="2"/>
	<rect x="6.501" y="298" fill="#009688" width="4" height="6"/>
	<rect x="16.001" y="301" fill="#009688" width="4" height="8"/>
	<rect x="24.501" y="313" fill="#009688" width="6" height="6"/>
	<rect x="6.501" y="334" fill="#009688" width="4" height="6"/>
	<rect x="16.001" y="334" fill="#009688" width="4" height="6"/>
	<rect x="25.501" y="337" fill="#009688" width="4" height="8"/>
	<rect x="5.501" y="370" fill="#009688" width="6" height="6"/>
	<rect x="15.001" y="370" fill="#009688" width="6" height="6"/>
	<rect x="25.501" y="370" fill="#009688" width="4" height="6"/>
	<rect x="5.501" y="406" fill="#009688" width="6" height="6"/>
	<rect x="15.001" y="406" fill="#009688" width="6" height="6"/>
	<rect x="24.501" y="406" fill="#009688" width="6" height="6"/>
	<rect x="5.501" y="448" fill="#009688" width="6" height="6"/>
	<rect x="15.001" y="442" fill="#009688" width="6" height="6"/>
	<rect x="24.501" y="442" fill="#009688" width="6" height="6"/>
	<rect x="5.501" y="490" fill="#009688" width="6" height="6"/>
	<rect x="15.001" y="484" fill="#009688" width="6" height="6"/>
	<rect x="24.501" y="478" fill="#009688" width="6" height="6"/>
	<rect x="5.501" y="536" fill="#009688" width="6" height="2"/>
	<rect x="15.001" y="526" fill="#009688" width="6" height="6"/>
	<rect x="24.501" y="520" fill="#009688" width="6" height="6"/>
	<rect x="5.501" y="568" fill="#009688" width="6" height="4"/>
	<rect x="15.001" y="572" fill="#009688" width="6" height="2"/>
	<rect x="24.501" y="562" fill="#009688" width="6" height="6"/>
	<rect x="5.501" y="600" fill="#009688" width="6" height="6"/>
	<rect x="15.001" y="604" fill="#009688" width="6" height="4"/>
	<rect x="24.501" y="608" fill="#009688" width="6" height="2"/>
	<rect x="5.501" y="636" fill="#009688" width="6" height="6"/>
	<rect x="15.001" y="636" fill="#009688" width="6" height="6"/>
	<rect x="24.501" y="640" fill="#009688" width="6" height="4"/>
	<rect x="5.501" y="672" fill="#009688" width="6" height="6"/>
	<rect x="15.001" y="672" fill="#009688" width="6" height="6"/>
	<rect x="24.501" y="672" fill="#009688" width="6" height="6"/>
</g>
</svg>
