<svg width="90" height="24" viewBox="0 0 90 24" fill="none" xmlns="http://www.w3.org/2000/svg">
<rect width="18" height="24" rx="3" fill="#2F2F2F"/>
<rect x="0.5" y="0.5" width="17" height="23" rx="2.5" stroke="black" stroke-opacity="0.15"/>
<mask id="mask0_176_277" style="mask-type:alpha" maskUnits="userSpaceOnUse" x="0" y="0" width="18" height="24">
<rect width="18" height="24" rx="3" fill="white"/>
</mask>
<g mask="url(#mask0_176_277)">
<line y1="23" x2="18" y2="23" stroke="#878586" stroke-width="2"/>
</g>
<rect x="18" width="18" height="24" rx="3" fill="#2F2F2F"/>
<rect x="18.5" y="0.5" width="17" height="23" rx="2.5" stroke="black" stroke-opacity="0.15"/>
<mask id="mask1_176_277" style="mask-type:alpha" maskUnits="userSpaceOnUse" x="18" y="0" width="18" height="24">
<rect x="18" width="18" height="24" rx="3" fill="white"/>
</mask>
<g mask="url(#mask1_176_277)">
<line x1="18" y1="23" x2="36" y2="23" stroke="#60CDFF" stroke-width="2"/>
</g>
<rect x="36.5" y="0.5" width="17" height="23" rx="2.5" fill="#262626" stroke="#2C2C2C"/>
<rect x="54" width="18" height="24" rx="3" fill="#2F2F2F"/>
<rect x="54.5" y="0.5" width="17" height="23" rx="2.5" stroke="black" stroke-opacity="0.15"/>
<mask id="mask2_176_277" style="mask-type:alpha" maskUnits="userSpaceOnUse" x="54" y="0" width="18" height="24">
<rect x="54" width="18" height="24" rx="3" fill="white"/>
</mask>
<g mask="url(#mask2_176_277)">
<line x1="54" y1="23" x2="72" y2="23" stroke="#60CDFF" stroke-width="2"/>
</g>
<rect x="72" width="18" height="24" rx="3" fill="#2F2F2F"/>
<rect x="72.5" y="0.5" width="17" height="23" rx="2.5" stroke="black" stroke-opacity="0.15"/>
<mask id="mask3_176_277" style="mask-type:alpha" maskUnits="userSpaceOnUse" x="72" y="0" width="18" height="24">
<rect x="72" width="18" height="24" rx="3" fill="#262626"/>
</mask>
<g mask="url(#mask3_176_277)">
<line x1="72" y1="23" x2="90" y2="23" stroke="#878586" stroke-width="2"/>
</g>
</svg>
