<svg width="160" height="32" viewBox="0 0 160 32" fill="none" xmlns="http://www.w3.org/2000/svg">
<path d="M26.004 17.836H17.8368V26H14.1682V17.836H6.00098V14.168H14.1682V6H17.8368V14.168H26.004V17.836Z" fill="#FEFEFE"/>
<path d="M58.0086 17.836H49.8414V26H46.1728V17.836H38.0056V14.168H46.1728V6H49.8414V14.168H58.0086V17.836Z" fill="#FEFEFE"/>
<path d="M90.0135 17.836H81.8463V26H78.1777V17.836H70.0105V14.168H78.1777V6H81.8463V14.168H90.0135V17.836Z" fill="#FEFEFE" fill-opacity="0.25"/>
<path d="M122.018 17.836H113.851V26H110.182V17.836H102.015V14.168H110.182V6H113.851V14.168H122.018V17.836Z" fill="#FEFEFE"/>
<path d="M153.999 17.836H145.832V26H142.163V17.836H133.996V14.168H142.163V6H145.832V14.168H153.999V17.836Z" fill="#FEFEFE"/>
</svg>
